<svg width="100" height="100" fill="none" xmlns="http://www.w3.org/2000/svg"><rect x="1" y="1" width="98" height="98" rx="49" fill="#FF9F18" stroke="#FF9F18" stroke-width="2"/><path d="M51.119 41.059a1.5 1.5 0 01-2.117 0L36.267 28.378a1.299 1.299 0 00-1.832 0l-5.934 5.909a1.286 1.286 0 000 1.824l8.428 8.391 4.4 4.542c.485.5.485 1.291 0 1.791l-4.4 4.542-8.55 8.512a1.286 1.286 0 000 1.824l5.935 5.91a1.3 1.3 0 001.831 0L48.882 58.94a1.5 1.5 0 012.117 0l12.735 12.681a1.299 1.299 0 001.832 0l5.934-5.909a1.286 1.286 0 000-1.824l-8.428-8.391-4.4-4.542a1.286 1.286 0 010-1.791l4.4-4.542 8.55-8.512a1.286 1.286 0 000-1.824l-5.935-5.91a1.3 1.3 0 00-1.832 0L51.12 41.06z" fill="#fff"/></svg>