<svg width="747" height="553" fill="none" xmlns="http://www.w3.org/2000/svg"><path d="M488.419 67.006h54.788a2.42 2.42 0 002.42-2.42V48.91a2.42 2.42 0 00-2.42-2.42h-22.264l30.346-30.346a2.42 2.42 0 000-3.422L540.285 1.717a2.42 2.42 0 00-3.422 0l-30.346 30.346V9.478a2.42 2.42 0 00-2.42-2.42h-15.678A2.42 2.42 0 00486 9.478v55.108a2.42 2.42 0 002.419 2.42zm194 0h54.788a2.42 2.42 0 002.42-2.42V48.91a2.42 2.42 0 00-2.42-2.42h-22.264l30.346-30.346a2.42 2.42 0 000-3.422L734.285 1.717a2.42 2.42 0 00-3.422 0l-30.346 30.346V9.478a2.42 2.42 0 00-2.42-2.42h-15.678A2.42 2.42 0 00680 9.478v55.108a2.42 2.42 0 002.419 2.42zm-97 290.994h54.788a2.42 2.42 0 002.42-2.419v-15.678a2.42 2.42 0 00-2.42-2.42h-22.264l30.346-30.346a2.42 2.42 0 000-3.422l-11.004-11.004a2.42 2.42 0 00-3.422 0l-30.346 30.346v-22.585a2.42 2.42 0 00-2.42-2.419h-15.678a2.419 2.419 0 00-2.419 2.419v55.109a2.419 2.419 0 002.419 2.419zM3.42 358h54.787a2.42 2.42 0 002.42-2.419v-15.678a2.42 2.42 0 00-2.42-2.42H35.943l30.346-30.346a2.42 2.42 0 000-3.422l-11.004-11.004a2.42 2.42 0 00-3.422 0l-30.346 30.346v-22.585a2.42 2.42 0 00-2.42-2.419H3.42A2.42 2.42 0 001 300.472v55.109A2.42 2.42 0 003.42 358zm679-96.994h54.788a2.42 2.42 0 002.42-2.42v-15.677a2.42 2.42 0 00-2.42-2.42h-22.264l30.346-30.346a2.42 2.42 0 000-3.422l-11.004-11.004a2.42 2.42 0 00-3.422 0l-30.346 30.346v-22.585a2.42 2.42 0 00-2.42-2.42H682.42a2.42 2.42 0 00-2.419 2.42v55.108a2.42 2.42 0 002.419 2.42zM197.419 552h54.788a2.42 2.42 0 002.42-2.419v-15.678a2.42 2.42 0 00-2.42-2.42h-22.264l30.346-30.346a2.42 2.42 0 000-3.422l-11.004-11.004a2.42 2.42 0 00-3.422 0l-30.346 30.346v-22.585a2.42 2.42 0 00-2.42-2.419h-15.678a2.419 2.419 0 00-2.419 2.419v55.109a2.419 2.419 0 002.419 2.419z" stroke="#fff"/><path d="M585.419 67.006h54.788a2.42 2.42 0 002.42-2.42V48.91a2.42 2.42 0 00-2.42-2.42h-22.264l30.346-30.346a2.42 2.42 0 000-3.422L637.285 1.717a2.42 2.42 0 00-3.422 0l-30.346 30.346V9.478a2.42 2.42 0 00-2.42-2.42h-15.678A2.42 2.42 0 00583 9.478v55.108a2.42 2.42 0 002.419 2.42z" fill="#FF9F18"/><path d="M100.419 164.006h54.788a2.42 2.42 0 002.42-2.42v-15.677a2.42 2.42 0 00-2.42-2.42h-22.264l30.346-30.346a2.42 2.42 0 000-3.422l-11.004-11.004a2.42 2.42 0 00-3.422 0l-30.346 30.346v-22.585a2.42 2.42 0 00-2.42-2.42h-15.678a2.42 2.42 0 00-2.419 2.42v55.108a2.42 2.42 0 002.419 2.42z" stroke="#fff"/><path d="M585.419 164.006h54.788a2.42 2.42 0 002.42-2.42v-15.677a2.42 2.42 0 00-2.42-2.42h-22.264l30.346-30.346a2.42 2.42 0 000-3.422l-11.004-11.004a2.42 2.42 0 00-3.422 0l-30.346 30.346v-22.585a2.42 2.42 0 00-2.42-2.42h-15.678a2.42 2.42 0 00-2.419 2.42v55.108a2.42 2.42 0 002.419 2.42zm0 387.994h54.788a2.42 2.42 0 002.42-2.419v-15.678a2.42 2.42 0 00-2.42-2.42h-22.264l30.346-30.346a2.42 2.42 0 000-3.422l-11.004-11.004a2.42 2.42 0 00-3.422 0l-30.346 30.346v-22.585a2.42 2.42 0 00-2.42-2.419h-15.678a2.419 2.419 0 00-2.419 2.419v55.109a2.419 2.419 0 002.419 2.419zm-291-388h54.788a2.42 2.42 0 002.42-2.419v-15.678a2.42 2.42 0 00-2.42-2.42h-22.264l30.346-30.346a2.42 2.42 0 000-3.422l-11.004-11.004a2.42 2.42 0 00-3.422 0l-30.346 30.346v-22.585a2.42 2.42 0 00-2.42-2.419h-15.678a2.419 2.419 0 00-2.419 2.419v55.109a2.419 2.419 0 002.419 2.419z" fill="#fff"/><path d="M488.42 261h54.788a2.42 2.42 0 002.42-2.419v-15.678a2.42 2.42 0 00-2.42-2.42h-22.264l30.346-30.346a2.42 2.42 0 000-3.422l-11.004-11.004a2.42 2.42 0 00-3.422 0l-30.346 30.346v-22.585a2.42 2.42 0 00-2.42-2.419H488.42a2.419 2.419 0 00-2.419 2.419v55.109A2.419 2.419 0 00488.42 261zM100.419 552h54.788a2.42 2.42 0 002.42-2.419v-15.678a2.42 2.42 0 00-2.42-2.42h-22.264l30.346-30.346a2.42 2.42 0 000-3.422l-11.004-11.004a2.42 2.42 0 00-3.422 0l-30.346 30.346v-22.585a2.42 2.42 0 00-2.42-2.419h-15.678A2.42 2.42 0 0098 494.472v55.109a2.42 2.42 0 002.419 2.419zm582-97h54.788a2.42 2.42 0 002.42-2.419v-15.678a2.42 2.42 0 00-2.42-2.42h-22.264l30.346-30.346a2.42 2.42 0 000-3.422l-11.004-11.004a2.42 2.42 0 00-3.422 0l-30.346 30.346v-22.585a2.42 2.42 0 00-2.42-2.419h-15.678a2.419 2.419 0 00-2.419 2.419v55.109a2.419 2.419 0 002.419 2.419zm-388 0h54.788a2.42 2.42 0 002.42-2.419v-15.678a2.42 2.42 0 00-2.42-2.42h-22.264l30.346-30.346a2.42 2.42 0 000-3.422l-11.004-11.004a2.42 2.42 0 00-3.422 0l-30.346 30.346v-22.585a2.42 2.42 0 00-2.42-2.419h-15.678a2.419 2.419 0 00-2.419 2.419v55.109a2.419 2.419 0 002.419 2.419zm-190.497-97H238.03a5.922 5.922 0 005.922-5.922v-38.376a5.922 5.922 0 00-5.922-5.922h-54.499l74.281-74.281a5.923 5.923 0 000-8.376l-26.935-26.935a5.923 5.923 0 00-8.376 0l-74.281 74.281v-55.284a5.922 5.922 0 00-5.922-5.922h-38.376A5.923 5.923 0 0098 217.185v134.893a5.922 5.922 0 005.922 5.922z" fill="#FF9F18"/><path d="M391.42 455h54.788a2.42 2.42 0 002.42-2.419v-15.678a2.42 2.42 0 00-2.42-2.42h-22.264l30.346-30.346a2.42 2.42 0 000-3.422l-11.004-11.004a2.42 2.42 0 00-3.422 0l-30.346 30.346v-22.585a2.42 2.42 0 00-2.42-2.419H391.42a2.419 2.419 0 00-2.419 2.419v55.109A2.419 2.419 0 00391.42 455z" fill="#fff"/></svg>