<svg width="252" height="101" fill="none" xmlns="http://www.w3.org/2000/svg"><path d="M1 4.611v81.773a3.611 3.611 0 003.611 3.611h23.4a3.611 3.611 0 003.611-3.61V53.152l45.293 45.294a3.61 3.61 0 005.107 0l16.424-16.425a3.611 3.611 0 000-5.107L53.154 31.622h33.71a3.611 3.611 0 003.61-3.611V4.61A3.611 3.611 0 0086.864 1H4.61A3.611 3.611 0 001 4.611zm150.505 0v81.773a3.611 3.611 0 003.611 3.611h23.4a3.611 3.611 0 003.611-3.61V53.152l45.293 45.294a3.611 3.611 0 005.107 0l16.424-16.425a3.61 3.61 0 000-5.107l-45.293-45.293h33.709a3.611 3.611 0 003.612-3.611V4.61A3.611 3.611 0 00237.367 1h-82.251a3.611 3.611 0 00-3.611 3.611z" fill="#FF9F18" stroke="#FF9F18" stroke-width="2"/></svg>