<svg width="71" height="71" viewBox="0 0 71 71" fill="none" xmlns="http://www.w3.org/2000/svg">
<path id="Vector 12" d="M70.4707 67.5858L70.4707 10.2484C70.4707 8.84995 69.3371 7.71632 67.9387 7.71632L51.5312 7.71632C50.1328 7.71632 48.9992 8.84995 48.9992 10.2484L48.9992 33.5492L17.2404 1.79042C16.2516 0.801598 14.6484 0.801598 13.6596 1.79042L2.14325 13.3067C1.15443 14.2955 1.15443 15.8987 2.14325 16.8876L33.902 48.6464L10.2657 48.6464C8.86729 48.6464 7.73366 49.78 7.73366 51.1784L7.73365 67.5858C7.73365 68.9842 8.86729 70.1179 10.2657 70.1179L67.9387 70.1179C69.3371 70.1179 70.4707 68.9842 70.4707 67.5858Z" fill="#FF9F18" stroke="#FF9F18" stroke-width="1.00168"/>
</svg>
