<svg width="41" height="40" fill="none" xmlns="http://www.w3.org/2000/svg"><path fill-rule="evenodd" clip-rule="evenodd" d="M19.096.004c-.271.004-.439.013-.439.024 0 .01-.14.017-.372.017-.236 0-.372.006-.372.018 0 .01-.078.017-.199.018-.11 0-.263.011-.341.025a2.139 2.139 0 01-.306.027c-.096 0-.163.007-.163.018 0 .01-.083.017-.213.017-.12 0-.212.008-.212.017 0 .009-.074.02-.164.024-.253.013-.58.051-.58.068 0 .008-.072.015-.16.015-.087 0-.16.007-.16.016 0 .009-.057.02-.128.025-.215.014-.491.052-.491.067 0 .008-.056.015-.124.015-.071 0-.124.008-.124.018 0 .01-.058.017-.139.017a.523.523 0 00-.152.013c-.017.018-.238.058-.378.07-.06.004-.11.016-.11.024 0 .01-.056.017-.125.017-.068 0-.124.007-.124.015 0 .01-.055.022-.124.029-.068.006-.124.02-.124.028 0 .009-.047.016-.106.016-.058 0-.106.007-.106.016 0 .009-.046.02-.102.025-.165.014-.332.046-.338.065-.003.01-.05.017-.102.017-.053 0-.096.007-.096.016 0 .009-.042.02-.093.025a1.098 1.098 0 00-.309.061.286.286 0 01-.11.021c-.04 0-.072.008-.072.018 0 .01-.04.018-.089.018-.049 0-.088.007-.088.017 0 .01-.023.018-.05.018a.62.62 0 00-.138.026.626.626 0 01-.136.026c-.027 0-.048.009-.048.018 0 .01-.036.018-.08.018-.044 0-.08.008-.08.018 0 .01-.024.017-.054.017a.373.373 0 00-.117.027.387.387 0 01-.123.026c-.033 0-.06.008-.06.018 0 .01-.04.017-.089.017-.048 0-.088.008-.088.018 0 .01-.026.018-.058.018a.183.183 0 00-.092.026.182.182 0 01-.093.026c-.032 0-.058.008-.058.018 0 .01-.036.018-.08.018-.044 0-.08.007-.08.017 0 .01-.026.018-.057.018a.25.25 0 00-.102.026.214.214 0 01-.084.026c-.022 0-.04.009-.04.018 0 .01-.036.018-.08.018-.044 0-.08.008-.08.017 0 .01-.026.018-.057.019a.183.183 0 00-.092.026.182.182 0 01-.093.026c-.032 0-.059.008-.059.018 0 .01-.028.017-.062.017s-.062.007-.062.016c0 .008-.026.02-.057.025-.104.018-.226.055-.226.069 0 .007-.028.014-.062.014s-.062.007-.062.017c0 .01-.026.018-.058.018a.25.25 0 00-.102.026.214.214 0 01-.084.026c-.022 0-.04.009-.04.018 0 .01-.023.018-.053.018-.029 0-.053.008-.053.017 0 .01-.017.018-.037.018a.643.643 0 00-.226.075c-.003.007-.033.013-.066.013s-.06.008-.06.018c0 .01-.015.017-.033.017-.03 0-.105.03-.184.072a.167.167 0 01-.067.016c-.02 0-.035.008-.035.018 0 .01-.028.018-.062.018s-.062.008-.062.017c0 .01-.02.018-.043.018a.113.113 0 00-.07.026.104.104 0 01-.063.027c-.02 0-.037.008-.037.017 0 .01-.028.018-.062.018s-.062.008-.062.018c0 .01-.014.017-.032.017a.134.134 0 00-.066.026.149.149 0 01-.075.027c-.022 0-.04.008-.04.018 0 .01-.023.017-.051.017-.029 0-.054.006-.058.014-.009.02-.136.074-.174.074-.02 0-.035.008-.035.018 0 .01-.02.018-.045.018-.024 0-.044.008-.044.017 0 .01-.014.018-.03.018a.137.137 0 00-.066.027.134.134 0 01-.067.026c-.017 0-.032.008-.032.017 0 .01-.02.018-.044.018-.024 0-.044.008-.044.018 0 .01-.02.017-.045.017-.024 0-.044.008-.044.018 0 .009-.02.022-.044.028-.024.006-.044.018-.044.027 0 .008-.024.015-.054.015-.029 0-.053.008-.053.018 0 .01-.02.018-.044.018-.024 0-.044.007-.044.017 0 .01-.02.022-.045.028-.024.006-.044.018-.044.027 0 .009-.016.016-.035.016-.02 0-.036.008-.036.017 0 .01-.02.018-.044.018-.024 0-.044.008-.044.017 0 .01-.02.022-.045.029-.024.006-.044.018-.044.026 0 .009-.016.016-.035.016-.02 0-.036.008-.036.018 0 .01-.02.017-.044.017-.024 0-.044.008-.044.018 0 .009-.02.022-.045.028-.024.006-.044.018-.044.027 0 .008-.016.015-.035.015-.02 0-.036.008-.036.018 0 .01-.011.018-.025.018-.031 0-.134.057-.134.074 0 .008-.012.014-.027.014-.014 0-.026.008-.026.017 0 .01-.016.018-.036.018-.02 0-.035.007-.035.016 0 .008-.02.02-.044.026-.025.006-.045.02-.045.029 0 .01-.012.017-.026.017-.015 0-.027.008-.027.018 0 .01-.016.017-.035.017-.02 0-.036.008-.036.018 0 .01-.01.017-.022.017-.012 0-.044.02-.07.044-.026.025-.058.045-.07.045-.032 0-.086.043-.086.068 0 .01-.018.02-.04.02a.093.093 0 00-.066.035c-.014.02-.035.035-.047.035-.012 0-.042.02-.066.044-.025.024-.051.044-.06.044a.313.313 0 00-.08.062.417.417 0 01-.075.061c-.011 0-.043.026-.106.084a.207.207 0 01-.052.04 3.18 3.18 0 00-.346.351c0 .01-.012.019-.027.019a.027.027 0 00-.027.026c0 .015-.008.027-.017.027-.01 0-.018.016-.018.035 0 .02-.009.035-.019.035-.024 0-.07.045-.07.07 0 .01-.007.018-.017.018-.01 0-.018.016-.018.035 0 .02-.007.036-.016.036-.008 0-.02.02-.027.044-.006.024-.019.044-.028.044-.01 0-.018.016-.018.035 0 .02-.007.035-.017.035-.01 0-.018.028-.018.062s-.007.062-.016.062c-.064 0-.063-.226-.063 13.477 0 11.447.003 13.338.025 13.509a.739.739 0 00.04.198c.008 0 .014.043.014.097 0 .053.008.097.018.097.01 0 .017.023.017.052 0 .064.056.247.075.247.008 0 .014.028.014.062s.008.062.018.062c.01 0 .017.027.017.061s.008.062.017.062c.009 0 .021.024.028.053.006.029.019.053.028.053.009 0 .016.023.016.052 0 .03.008.053.018.053.01 0 .017.016.017.035 0 .02.008.036.016.036.009 0 .021.02.027.044.006.024.02.044.029.044.01 0 .017.02.017.044 0 .024.008.044.018.044.01 0 .017.016.017.035 0 .02.008.035.018.035.01 0 .018.012.018.026 0 .014.02.045.044.07.025.024.044.056.044.072 0 .015.02.049.045.075.024.026.044.058.044.07 0 .012.006.022.014.022s.029.026.047.057c.019.032.048.07.066.086.018.016.032.034.032.04 0 .013.023.043.085.108.022.023.04.047.04.053 0 .018.049.061.069.061.01 0 .019.008.019.018 0 .02.363.387.381.387.006 0 .032.02.058.044a.196.196 0 00.062.045c.008 0 .041.027.074.061.032.034.071.062.087.062s.029.008.029.017c0 .01.01.018.024.018s.03.012.035.026a.044.044 0 00.038.027c.015 0 .027.008.027.018 0 .01.012.017.026.017.015 0 .027.008.027.018 0 .01.016.017.035.017.02 0 .036.008.036.017 0 .01.028.03.062.046s.062.037.062.045c0 .009.02.016.044.016.024 0 .044.008.044.017 0 .01.02.022.045.028.024.007.044.019.044.027 0 .009.016.016.035.016.02 0 .036.008.036.017 0 .01.02.018.044.018.024 0 .044.007.044.016 0 .01.024.022.053.028.03.006.058.019.063.028.006.009.03.016.054.016.023 0 .043.008.043.018 0 .01.016.017.035.017.035 0 .036.012.036 1.657 0 1.092.006 1.656.017 1.656.01 0 .018.043.018.095 0 .053.008.101.018.107.01.006.018.03.018.053a.11.11 0 00.026.068c.015.014.027.05.027.08s.008.055.017.055c.01 0 .018.016.018.035 0 .02.007.035.016.035.009 0 .02.02.027.044.006.024.019.044.028.044.01 0 .018.012.018.027 0 .014.008.026.017.026.01 0 .018.013.018.028 0 .015.03.058.067.095.036.038.086.096.11.13.025.035.05.063.058.064.012 0 .077.051.13.102.012.012.027.021.034.021.006 0 .022.01.036.023.058.052.078.066.096.066.01 0 .018.008.018.017 0 .01.016.018.036.018.02 0 .035.008.035.017 0 .01.011.018.025.018.014 0 .052.013.084.03l.09.044a.243.243 0 00.084.014c.03 0 .054.007.054.015 0 .009.038.02.084.027.046.006.124.019.173.028.115.021 2.824.021 2.94 0 .049-.009.126-.022.173-.028.046-.006.084-.018.084-.025 0-.007.03-.017.066-.022.108-.015.17-.034.196-.06a.084.084 0 01.049-.023c.014 0 .025-.008.025-.018 0-.01.016-.017.036-.017.02 0 .035-.008.035-.018 0-.01.012-.017.026-.017.014 0 .046-.02.07-.044.024-.025.053-.045.063-.045.01 0 .018-.007.018-.017 0-.01.016-.018.036-.018.02 0 .035-.008.035-.019 0-.02.044-.069.062-.069.015 0 .062-.047.062-.061 0-.019.05-.062.07-.062.01 0 .019-.012.019-.027 0-.014.008-.026.017-.026.01 0 .018-.014.018-.031s.02-.046.044-.064c.025-.018.045-.048.045-.066 0-.018.008-.033.017-.033.01 0 .018-.012.018-.026 0-.015.008-.027.018-.027.01 0 .018-.015.018-.034a.1.1 0 01.026-.06.103.103 0 00.027-.063c0-.02.008-.036.017-.036.01 0 .018-.028.018-.062s.006-.062.014-.062a.416.416 0 00.044-.136c.028-.124.03-.276.03-1.656v-1.52h17.076v1.471c0 .97.006 1.471.018 1.471.01 0 .018.062.018.15s.007.15.017.15c.01 0 .018.027.018.06 0 .034.007.066.016.071.01.006.022.034.028.063.007.029.02.052.028.052.01 0 .017.016.017.036 0 .019.008.035.017.035.01 0 .018.016.018.036 0 .02.01.048.022.061.053.059.067.079.067.096 0 .01.008.018.017.018.01 0 .018.013.018.029s.028.055.062.087a.32.32 0 01.062.069c0 .013.083.097.096.097.005 0 .036.028.069.062a.3.3 0 00.073.061c.007 0 .024.01.037.023.062.054.08.066.105.066.015 0 .027.008.027.017 0 .01.012.018.027.018s.027.008.027.017c0 .01.014.018.03.019.018 0 .047.012.066.026a.135.135 0 00.066.026c.018 0 .032.008.032.018 0 .01.032.017.071.017.04 0 .071.007.071.015 0 .009.038.02.084.027.046.006.124.019.173.028.12.022 2.844.021 2.958-.001.049-.01.13-.022.182-.028.05-.005.093-.017.093-.025 0-.009.027-.016.062-.016.034 0 .062-.008.062-.017 0-.01.016-.018.036-.018a.11.11 0 00.064-.026.1.1 0 01.06-.027c.02 0 .034-.008.034-.018 0-.01.012-.017.027-.017s.027-.008.027-.018c0-.01.012-.017.027-.017s.046-.02.068-.044c.023-.025.054-.045.07-.045.016 0 .03-.007.03-.017 0-.01.011-.018.026-.018s.027-.008.027-.019c0-.02.043-.069.061-.069.018 0 .098-.085.098-.105 0-.01.01-.018.024-.018.013 0 .034-.02.047-.044.013-.024.03-.044.038-.044s.015-.012.015-.027.02-.049.044-.075c.025-.026.044-.058.044-.07 0-.012.008-.022.018-.022.01 0 .018-.02.018-.043 0-.023.006-.045.013-.048.022-.01.075-.12.075-.157 0-.019.009-.034.018-.034.01 0 .018-.032.018-.07 0-.04.006-.07.014-.07.042 0 .057-.543.057-1.978 0-1.316.003-1.494.026-1.494.015 0 .027-.008.027-.017 0-.01.027-.018.06-.018.034 0 .064-.006.067-.013a.354.354 0 01.149-.075c.014 0 .025-.008.025-.017 0-.01.012-.018.027-.018.034 0 .203-.09.203-.11 0-.007.017-.013.037-.013a.1.1 0 00.061-.023c.059-.052.08-.066.096-.066.01 0 .019-.008.019-.017 0-.01.016-.018.035-.018.02 0 .036-.008.036-.017 0-.01.008-.018.019-.018.01 0 .03-.01.043-.022.054-.048.078-.066.089-.066.006 0 .022-.01.035-.022.053-.047.078-.066.087-.066.006 0 .04-.028.076-.062a.31.31 0 01.08-.062c.02 0 .439-.419.439-.438 0-.009.012-.02.026-.026.015-.005.027-.02.027-.033 0-.013.016-.035.035-.049.02-.014.036-.032.036-.04 0-.015.02-.042.084-.11a.188.188 0 00.04-.053c0-.006.01-.022.022-.035.052-.058.066-.078.066-.096 0-.01.008-.018.018-.018.01 0 .018-.012.018-.027s.016-.045.036-.066a.218.218 0 00.046-.079c.005-.022.017-.04.026-.04.009 0 .016-.015.016-.035 0-.02.008-.035.017-.035.01 0 .022-.02.029-.044.006-.024.018-.044.026-.044.01 0 .016-.016.016-.035 0-.02.008-.035.018-.035.01 0 .018-.017.018-.037 0-.02.01-.047.024-.06a.328.328 0 00.048-.105c.013-.044.03-.08.038-.08.007 0 .014-.024.014-.053 0-.03.006-.053.013-.053.015 0 .054-.103.07-.18.005-.027.016-.05.025-.05.009 0 .016-.039.016-.087 0-.049.008-.088.017-.088.01 0 .018-.026.019-.058 0-.031.012-.077.026-.1a.382.382 0 00.026-.146c0-.056.008-.102.018-.102.011 0 .018-.1.018-.264s.006-.264.017-.264c.012 0 .018-4.384.018-13.117 0-8.732-.006-13.116-.018-13.116-.01 0-.017-.053-.017-.123s-.008-.124-.018-.124c-.01 0-.018-.027-.018-.061s-.008-.062-.017-.062c-.01 0-.023-.02-.029-.044-.006-.024-.018-.044-.026-.044-.01 0-.016-.02-.016-.044 0-.024-.008-.044-.018-.044-.01 0-.018-.015-.018-.033 0-.019-.012-.038-.026-.044a.043.043 0 01-.027-.037c0-.015-.008-.027-.018-.027-.01 0-.017-.012-.017-.026 0-.015-.008-.027-.018-.027a.018.018 0 01-.018-.018c0-.02-.005-.026-.097-.13a.353.353 0 01-.062-.084c0-.008-.009-.015-.02-.015-.02 0-.069-.043-.069-.061 0-.015-.047-.062-.062-.062-.018 0-.062-.049-.062-.07 0-.01-.009-.018-.02-.018-.01 0-.033-.014-.048-.032a.858.858 0 00-.1-.083 1.185 1.185 0 01-.126-.11c-.03-.031-.068-.057-.084-.057s-.03-.008-.03-.017c0-.01-.011-.018-.026-.018-.014 0-.026-.01-.026-.022 0-.012-.026-.034-.058-.048a.444.444 0 01-.102-.066c-.024-.022-.052-.04-.062-.04-.01 0-.03-.016-.044-.035-.014-.02-.04-.036-.058-.036-.017 0-.036-.012-.042-.026-.005-.015-.025-.027-.044-.027-.018 0-.033-.007-.033-.017 0-.01-.012-.018-.027-.018-.014 0-.026-.008-.026-.017 0-.01-.016-.018-.036-.018-.02 0-.035-.008-.035-.017 0-.01-.02-.023-.044-.029-.025-.006-.045-.018-.045-.026 0-.01-.012-.016-.026-.016-.015 0-.027-.008-.027-.018 0-.01-.016-.017-.035-.017-.02 0-.036-.006-.036-.014 0-.017-.102-.074-.134-.074-.014 0-.025-.008-.025-.018 0-.01-.012-.018-.027-.018-.014 0-.026-.007-.026-.016 0-.008-.036-.03-.08-.048-.044-.018-.08-.039-.08-.046 0-.007-.02-.013-.044-.013-.024 0-.044-.007-.044-.016 0-.009-.036-.03-.08-.048-.044-.018-.08-.039-.08-.046 0-.007-.02-.013-.044-.013-.024 0-.044-.008-.044-.018 0-.01-.016-.018-.036-.018-.02 0-.035-.007-.035-.017 0-.01-.02-.022-.044-.028-.025-.006-.045-.018-.045-.027 0-.009-.028-.016-.062-.016s-.062-.006-.062-.013c0-.018-.102-.075-.134-.075-.014 0-.025-.008-.025-.017 0-.01-.02-.018-.044-.018-.025 0-.045-.008-.045-.018 0-.01-.014-.017-.032-.017a.135.135 0 01-.066-.026.137.137 0 00-.065-.027c-.017 0-.031-.008-.031-.018 0-.01-.028-.017-.062-.017-.035 0-.062-.008-.062-.018a.018.018 0 00-.018-.018c-.01 0-.06-.02-.11-.044a.466.466 0 00-.124-.044c-.017 0-.032-.008-.032-.017 0-.01-.018-.018-.04-.018a.149.149 0 01-.074-.027.134.134 0 00-.066-.026c-.018 0-.032-.008-.032-.017 0-.01-.028-.018-.062-.018-.035 0-.062-.008-.062-.018 0-.01-.017-.017-.037-.017a.103.103 0 01-.063-.027.113.113 0 00-.07-.026c-.024 0-.043-.008-.043-.018 0-.01-.024-.017-.053-.017-.03 0-.053-.008-.053-.018 0-.01-.019-.018-.042-.018a.52.52 0 01-.193-.071.19.19 0 00-.075-.017c-.025 0-.045-.008-.045-.017 0-.01-.023-.018-.052-.018-.028 0-.057-.008-.063-.017-.006-.01-.024-.018-.04-.018a.235.235 0 01-.081-.027.235.235 0 00-.084-.026c-.019 0-.034-.008-.034-.018 0-.01-.032-.017-.07-.017-.04 0-.072-.007-.072-.016 0-.01-.031-.022-.07-.028-.04-.007-.071-.02-.071-.028 0-.009-.028-.016-.062-.016s-.062-.008-.062-.018c0-.01-.028-.017-.062-.017s-.062-.008-.062-.018c0-.01-.032-.022-.071-.029-.04-.006-.076-.018-.081-.026-.005-.009-.037-.016-.07-.016-.034 0-.062-.008-.062-.017 0-.01-.031-.018-.07-.018-.04 0-.071-.008-.071-.017 0-.01-.022-.018-.049-.019a.164.164 0 01-.083-.026.182.182 0 00-.093-.026c-.032 0-.059-.008-.059-.018 0-.01-.035-.017-.08-.017-.043 0-.08-.008-.08-.018 0-.01-.017-.018-.039-.018a.214.214 0 01-.084-.026.247.247 0 00-.1-.026c-.032 0-.062-.008-.068-.018-.006-.01-.047-.017-.09-.017s-.079-.007-.079-.016c0-.008-.033-.02-.075-.025-.04-.006-.077-.018-.08-.029-.004-.01-.042-.019-.085-.019-.043 0-.079-.007-.079-.017 0-.01-.035-.018-.08-.018-.043 0-.079-.008-.079-.017 0-.01-.03-.018-.066-.019a.273.273 0 01-.111-.025.25.25 0 00-.102-.026c-.032 0-.057-.009-.057-.018 0-.01-.04-.018-.089-.018-.049 0-.089-.008-.089-.018 0-.01-.028-.017-.062-.017a.395.395 0 01-.126-.027.388.388 0 00-.124-.026c-.033 0-.06-.008-.06-.018 0-.01-.043-.017-.097-.017-.054 0-.097-.008-.097-.018 0-.01-.033-.018-.072-.018a.288.288 0 01-.108-.019 1.197 1.197 0 00-.312-.063C28.654.82 28.612.81 28.612.8c0-.009-.042-.016-.094-.016-.051 0-.102-.009-.113-.02a.338.338 0 00-.127-.028c-.06-.005-.109-.017-.109-.025s-.048-.015-.106-.015c-.058 0-.106-.007-.106-.016 0-.009-.046-.02-.102-.025a2.565 2.565 0 01-.244-.039A2.415 2.415 0 0027.36.58c-.061-.005-.11-.015-.11-.023s-.055-.019-.12-.023a2.705 2.705 0 01-.27-.039 2.651 2.651 0 00-.28-.038c-.07-.005-.128-.016-.128-.025 0-.009-.068-.016-.15-.016-.083 0-.151-.007-.151-.015 0-.018-.268-.056-.474-.068-.08-.004-.146-.015-.146-.024 0-.009-.076-.016-.168-.016a.49.49 0 01-.169-.015c0-.017-.356-.058-.597-.069-.09-.004-.164-.014-.164-.023 0-.01-.1-.017-.23-.017-.142 0-.23-.006-.23-.017 0-.01-.067-.018-.165-.018-.09 0-.24-.012-.332-.026A3.06 3.06 0 0023.1.08c-.127 0-.208-.008-.208-.018 0-.012-.141-.018-.388-.018-.24 0-.391-.007-.395-.017-.006-.019-2.2-.036-3.012-.024zm6.515 3.133a.625.625 0 00.127.026c.022 0 .04.008.04.018 0 .01.024.018.054.018a.16.16 0 01.101.044c.027.024.057.044.067.044.01 0 .03.016.044.035.014.02.032.035.04.035.018 0 .066.045.066.062 0 .006.028.037.062.07.034.031.062.07.062.086 0 .016.008.029.018.029.01 0 .017.016.017.036a.1.1 0 00.027.063.112.112 0 01.027.07c0 .023.008.042.017.042.011 0 .018.088.018.23 0 .14-.007.228-.018.228-.01 0-.017.023-.017.051 0 .028-.012.06-.027.073a.093.093 0 00-.027.063c0 .024-.008.042-.017.042a.018.018 0 00-.018.019c0 .019-.018.043-.084.114a.19.19 0 00-.04.053c0 .014-.047.061-.061.061-.01 0-.035.018-.089.066-.014.012-.033.022-.044.022-.01 0-.019.008-.019.018 0 .01-.016.017-.035.017-.02 0-.036.008-.036.018 0 .01-.019.018-.043.018a.113.113 0 00-.07.026c-.017.018-.062.026-.142.026-.066 0-.117.008-.117.018 0 .012-1.676.018-4.995.018-3.318 0-4.995-.006-4.995-.018 0-.01-.053-.018-.124-.018-.068 0-.124-.007-.124-.016 0-.01-.028-.022-.062-.029-.034-.006-.062-.018-.062-.027 0-.009-.012-.016-.026-.016-.015 0-.027-.008-.027-.017 0-.01-.016-.018-.035-.018-.02 0-.036-.008-.036-.018 0-.01-.026-.03-.058-.045a.273.273 0 01-.093-.08c-.02-.028-.04-.05-.048-.05-.007 0-.013-.013-.013-.027 0-.015-.007-.027-.015-.027s-.03-.027-.049-.061c-.018-.034-.038-.062-.044-.062-.007 0-.016-.022-.022-.048a7.798 7.798 0 00-.048-.207c-.033-.138-.035-.172-.018-.256.012-.053.025-.126.03-.163.006-.036.017-.066.026-.066.009 0 .016-.02.016-.044 0-.024.008-.044.018-.044.01 0 .017-.011.017-.025 0-.014.02-.047.044-.073a.192.192 0 00.045-.063c0-.021.138-.156.16-.156.009 0 .017-.008.017-.018 0-.01.016-.017.035-.017.02 0 .036-.012.036-.027 0-.014.015-.026.035-.026.02 0 .036-.008.036-.018 0-.01.02-.017.044-.017.024 0 .044-.007.044-.016 0-.009.03-.02.067-.025a1.16 1.16 0 00.128-.026c.04-.012 1.845-.018 5.094-.02 4.41-.001 5.043.002 5.12.025zM2.206 7.74c-.09.003-.164.013-.164.022 0 .01-.033.017-.074.017a.66.66 0 00-.258.064.315.315 0 01-.093.024c-.02 0-.035.008-.035.018 0 .01-.02.018-.045.018-.024 0-.044.008-.044.017 0 .01-.011.018-.025.018-.032 0-.134.057-.134.075 0 .007-.02.013-.045.013-.024 0-.044.008-.044.018 0 .01-.015.017-.033.017-.019 0-.038.012-.044.027a.044.044 0 01-.037.026c-.015 0-.028.008-.028.018 0 .01-.011.017-.026.017s-.027.006-.027.014-.026.029-.057.047a.43.43 0 00-.086.066c-.016.017-.035.032-.042.032-.019 0-.063.048-.063.069 0 .01-.008.019-.018.019-.024 0-.106.08-.106.105 0 .01-.008.018-.019.018-.02 0-.07.043-.07.061 0 .006-.017.03-.04.054-.06.065-.083.094-.083.107 0 .007-.015.025-.033.04a.178.178 0 00-.046.069c-.006.021-.02.04-.029.04-.009 0-.016.015-.016.034 0 .02-.008.036-.018.036-.01 0-.018.012-.018.026 0 .015-.008.027-.017.027-.01 0-.018.015-.018.034 0 .019-.008.038-.017.044-.027.017-.072.118-.072.162 0 .023-.008.041-.017.041-.01 0-.018.02-.018.043a.112.112 0 01-.027.07c-.014.014-.026.05-.026.08s-.008.054-.018.054c-.01 0-.018.036-.018.08 0 .043-.007.079-.015.079-.01 0-.022.065-.03.145-.017.2-.018 6.313 0 6.483.008.075.022.137.03.137s.015.035.015.08c0 .043.008.078.018.078.01 0 .018.027.018.059a.18.18 0 00.026.092.136.136 0 01.026.065c0 .017.009.031.019.031s.017.028.017.062.008.061.018.061c.01 0 .018.011.018.025 0 .013.012.034.026.046a.082.082 0 01.027.055c0 .018.008.033.018.033.01 0 .017.016.017.035 0 .02.008.035.018.035.01 0 .018.012.018.027 0 .014.007.026.016.026.01 0 .023.018.03.04a.178.178 0 00.045.068c.018.016.033.036.033.044 0 .009.02.037.044.064a.23.23 0 01.044.057c0 .018.086.097.106.097.01 0 .018.009.018.019 0 .024.082.105.106.105.01 0 .018.008.018.018 0 .02.08.105.098.105.005 0 .032.02.058.044.026.024.055.044.064.044.008 0 .028.015.044.033a.18.18 0 00.068.045c.022.007.04.018.04.026 0 .007.028.024.062.037.034.013.062.03.062.038s.015.015.034.015c.018 0 .043.012.055.026.012.015.033.027.046.027.014 0 .025.008.025.017 0 .01.028.018.062.018s.062.008.062.017c0 .01.014.018.03.019.018 0 .047.012.066.026.019.014.06.026.093.026.032 0 .059.008.059.018 0 .01.036.017.08.017.043 0 .08.007.08.016 0 .009.06.02.136.026.076.006.175.015.221.021.063.008.09.004.111-.016.024-.024.027-.6.027-5.355 0-4.843-.002-5.33-.028-5.34A.142.142 0 002.4 7.73a4.721 4.721 0 01-.194.01zm36.335 0c-.016.016-.01 10.67.006 10.696.011.017.04.02.102.013.047-.006.152-.016.232-.022.08-.006.146-.018.146-.026 0-.009.036-.016.08-.016.044 0 .08-.007.08-.016 0-.008.026-.02.057-.024.08-.013.19-.054.19-.07 0-.007.02-.013.045-.013.025 0 .044-.008.044-.018 0-.01.02-.017.043-.017a.113.113 0 00.07-.027c.015-.014.035-.026.046-.026.01 0 .018-.008.018-.018 0-.01.017-.017.036-.017.02 0 .035-.008.035-.018 0-.01.015-.018.033-.018.018 0 .048-.02.066-.044.019-.024.048-.044.066-.044.017 0 .051-.018.075-.04.063-.059.094-.083.106-.083.02 0 .363-.356.363-.377 0-.011.016-.032.035-.046.02-.014.036-.032.036-.04 0-.009.01-.026.022-.04.053-.058.066-.078.066-.095 0-.01.008-.019.018-.019.01 0 .018-.016.018-.035 0-.02.008-.035.017-.035.01 0 .023-.02.029-.044.006-.024.018-.044.027-.044.008 0 .015-.02.015-.044 0-.025.008-.044.018-.044.01 0 .018-.014.018-.031s.013-.046.027-.065a.133.133 0 00.026-.066c0-.018.008-.032.018-.032.01 0 .017-.024.017-.053 0-.03.008-.053.018-.053.01 0 .018-.03.018-.067 0-.037.01-.076.02-.088a.34.34 0 00.04-.122c.01-.063.017-1.349.017-3.37 0-3.303-.002-3.438-.06-3.496-.01-.01-.017-.043-.017-.075s-.008-.058-.018-.058c-.01 0-.018-.02-.018-.044 0-.045-.003-.054-.059-.164a.277.277 0 01-.03-.084c0-.014-.007-.025-.017-.025-.01 0-.018-.02-.018-.044 0-.024-.006-.044-.013-.044-.008 0-.03-.028-.047-.062-.019-.034-.04-.062-.049-.062-.008 0-.015-.016-.015-.036 0-.036-.011-.054-.084-.131a.19.19 0 01-.04-.053c0-.006-.01-.022-.022-.036-.047-.052-.066-.077-.066-.086 0-.013-.21-.221-.223-.221-.017 0-.06-.05-.06-.07 0-.01-.017-.018-.036-.018-.02 0-.035-.008-.035-.018 0-.01-.013-.018-.027-.018a.027.027 0 01-.027-.026.027.027 0 00-.026-.027c-.015 0-.027-.007-.027-.017 0-.01-.012-.018-.027-.018s-.049-.02-.075-.044c-.026-.024-.058-.044-.07-.044-.013 0-.023-.008-.023-.017 0-.01-.015-.018-.034-.018-.018 0-.036-.006-.04-.013a.354.354 0 00-.149-.075c-.013 0-.025-.008-.025-.018 0-.01-.024-.017-.053-.017-.029 0-.053-.008-.053-.018 0-.01-.018-.018-.04-.018a.149.149 0 01-.074-.027.182.182 0 00-.093-.025c-.032 0-.059-.008-.059-.018 0-.01-.035-.018-.078-.018s-.08-.007-.084-.015c-.007-.017-.432-.04-.447-.024zm-19.104.022c0 .01.025.018.057.018s.073.012.092.026a.134.134 0 00.067.026c.017 0 .032.008.032.018 0 .01.008.017.018.017.01 0 .038.018.061.04.071.066.095.084.115.084.01 0 .018.016.018.035 0 .02.008.035.018.035.01 0 .018.008.018.019 0 .017.014.037.066.095a.105.105 0 01.022.061c0 .02.007.037.016.037.008 0 .022.045.03.1.017.127.017 8.93-.001 9.056-.007.051-.02.093-.029.093-.009 0-.016.02-.016.044 0 .024-.006.044-.013.044-.016 0-.075.1-.075.127 0 .02-.09.102-.111.102-.007 0-.013.012-.013.027 0 .014-.016.026-.036.026-.02 0-.035.008-.035.018 0 .01-.012.017-.027.017-.014 0-.026.008-.026.017 0 .01-.02.023-.045.029-.024.006-.044.018-.044.027 0 .008-.024.015-.053.015-.03 0-.053.008-.053.018 0 .011-2.084.017-6.218.017-4.133 0-6.217-.006-6.217-.017 0-.01-.028-.018-.062-.018s-.062-.007-.062-.015c0-.01-.02-.021-.044-.027-.025-.006-.044-.02-.044-.029 0-.01-.013-.017-.03-.017-.033 0-.254-.224-.254-.258 0-.013-.008-.024-.018-.024-.01 0-.017-.02-.017-.044 0-.024-.008-.044-.018-.044-.01 0-.018-.019-.018-.042a.462.462 0 00-.026-.116c-.04-.111-.04-8.886 0-8.994a.447.447 0 00.026-.12c0-.026.008-.048.018-.048.01 0 .018-.016.018-.036 0-.02.02-.057.044-.083a.197.197 0 00.044-.062c0-.024.142-.153.17-.153.013 0 .025-.008.025-.018 0-.01.012-.018.027-.018.014 0 .026-.008.026-.017 0-.01.015-.018.034-.018a.082.082 0 00.055-.026c.012-.015.049-.027.082-.027s.06-.008.06-.017c0-.012 2.069-.018 6.173-.018 4.103 0 6.173.006 6.173.018zm14.454 0c0 .01.035.017.08.017.043 0 .079.008.079.018 0 .01.02.022.044.028.025.006.045.018.045.027 0 .008.015.015.035.015.02 0 .035.008.035.018 0 .01.009.018.02.018.02 0 .069.043.069.061 0 .019.049.062.07.062.01 0 .019.012.019.026 0 .015.008.027.017.027.01 0 .018.016.018.035 0 .02.008.035.018.035.01 0 .017.011.017.025 0 .013.012.034.027.046a.09.09 0 01.027.064c0 .023.008.041.017.041.012 0 .018 1.539.018 4.581 0 3.042-.006 4.58-.018 4.58-.01 0-.017.015-.017.032a.133.133 0 01-.026.067.135.135 0 00-.027.065c0 .017-.009.03-.018.03a.018.018 0 00-.018.019c0 .01-.018.037-.04.06a19.1 19.1 0 00-.061.066c-.033.036-.073.067-.087.067-.006 0-.024.015-.04.033a.179.179 0 01-.069.045c-.022.007-.04.02-.04.029 0 .009-.031.016-.07.016-.04 0-.071.008-.071.018 0 .011-2.085.017-6.218.017s-6.217-.006-6.217-.017c0-.01-.028-.018-.062-.018s-.062-.007-.062-.016c0-.01-.018-.022-.04-.03a.179.179 0 01-.068-.044c-.016-.018-.034-.033-.04-.033-.014 0-.054-.031-.087-.067a19.1 19.1 0 00-.062-.065c-.021-.024-.04-.051-.04-.061a.018.018 0 00-.017-.019c-.01 0-.018-.015-.018-.034 0-.018-.007-.038-.016-.044-.01-.006-.022-.034-.028-.063-.007-.029-.02-.052-.028-.052-.01 0-.017-1.802-.017-4.581 0-2.897.007-4.58.018-4.58.009 0 .021-.028.028-.06a.226.226 0 01.045-.097c.018-.02.034-.045.034-.057 0-.011.027-.046.061-.078a.312.312 0 00.063-.07c0-.018.049-.061.07-.061.01 0 .018-.008.018-.018 0-.01.016-.018.036-.018.019 0 .035-.007.035-.015 0-.009.02-.021.044-.027.025-.006.044-.019.044-.028 0-.01.036-.018.08-.018.044 0 .08-.008.08-.017 0-.012 2.064-.018 6.155-.018 4.092 0 6.156.006 6.156.018zM9.606 22.63a.81.81 0 01.128.038.26.26 0 00.093.016c.034 0 .062.008.062.017 0 .01.017.018.037.018.02 0 .054.01.075.022a.614.614 0 00.194.066c.017 0 .03.008.03.018 0 .01.017.018.036.018.02 0 .036.007.036.015 0 .009.02.02.044.027.024.006.044.019.044.028 0 .01.012.018.027.018.014 0 .026.008.026.017 0 .01.016.018.036.018.02 0 .035.006.035.013 0 .008.028.029.062.047s.062.04.062.048.009.015.019.015c.019 0 .043.018.114.084a.19.19 0 00.054.04c.018 0 .061.048.061.069 0 .01.008.019.018.019.02 0 .23.201.23.22 0 .005.018.03.04.053.066.07.084.094.084.113 0 .01.008.019.018.019.01 0 .018.008.018.018 0 .017.013.037.066.096a.092.092 0 01.022.052c0 .015.008.028.018.028.01 0 .018.011.018.026s.007.026.015.026c.009 0 .021.02.027.044.006.025.02.045.029.045.01 0 .017.02.017.043 0 .025.006.045.014.045s.024.036.038.08a.326.326 0 00.048.104c.013.014.024.049.024.079s.008.054.018.054c.01 0 .018.035.018.079s.007.08.016.08c.01 0 .023.047.03.105.006.058.018.106.027.106.008 0 .015.19.015.422 0 .256-.007.423-.017.423-.009 0-.022.048-.029.106-.006.058-.018.106-.027.106-.008 0-.015.027-.015.061s-.008.062-.018.062c-.01 0-.018.028-.018.062s-.007.061-.016.061c-.008 0-.02.028-.027.062-.006.034-.02.062-.029.062-.009 0-.017.02-.017.044 0 .024-.007.044-.017.044-.01 0-.018.02-.018.044 0 .024-.007.044-.015.044s-.03.032-.047.07c-.017.04-.039.07-.047.07s-.015.017-.015.037c0 .02-.02.057-.044.083-.024.027-.044.056-.044.066 0 .01-.016.03-.036.044-.02.014-.035.032-.035.04 0 .013-.016.035-.067.091-.012.014-.022.03-.022.036 0 .015-.047.062-.062.062s-.062.047-.062.062c0 .014-.047.061-.061.061-.019 0-.098.086-.098.105 0 .01-.012.019-.027.019-.014 0-.026.007-.026.016 0 .009-.015.021-.034.027a.327.327 0 00-.088.063c-.03.029-.067.052-.082.052s-.027.008-.027.018c0 .01-.012.017-.026.017a.026.026 0 00-.027.027c0 .016-.017.026-.044.026-.024 0-.044.008-.044.018 0 .01-.016.017-.036.017-.02 0-.035.008-.035.018 0 .01-.02.022-.044.028-.025.006-.045.018-.045.027 0 .009-.016.015-.035.015-.02 0-.036.008-.036.018 0 .01-.015.018-.033.018a.547.547 0 00-.133.044.542.542 0 01-.135.044c-.02 0-.035.008-.035.018 0 .01-.032.017-.071.017a.288.288 0 00-.102.016c-.1.051-.846.098-.897.056a.459.459 0 00-.14-.03.366.366 0 01-.13-.027c-.004-.008-.04-.015-.078-.015-.039 0-.07-.008-.07-.017 0-.01-.028-.018-.062-.018s-.062-.007-.062-.016c0-.008-.028-.02-.062-.027-.034-.006-.062-.02-.062-.028 0-.01-.024-.017-.053-.017-.03 0-.053-.008-.053-.018 0-.01-.02-.018-.045-.018-.024 0-.044-.005-.044-.013 0-.017-.103-.075-.134-.075-.014 0-.025-.008-.025-.017a.018.018 0 00-.019-.018c-.017 0-.037-.014-.096-.066-.013-.012-.033-.022-.044-.022-.01 0-.018-.008-.018-.017 0-.01-.012-.018-.026-.018-.014 0-.053-.028-.086-.062a.309.309 0 00-.073-.061c-.017 0-.05-.03-.184-.163-.131-.13-.163-.165-.163-.182a.328.328 0 00-.062-.07c-.034-.034-.062-.073-.062-.087 0-.015-.008-.027-.018-.027a.018.018 0 01-.017-.018c0-.018-.014-.038-.067-.096-.012-.013-.022-.033-.022-.043 0-.01-.008-.02-.018-.02-.01 0-.017-.015-.017-.034 0-.02-.008-.036-.018-.036-.01 0-.018-.016-.018-.035 0-.02-.012-.04-.026-.046-.015-.006-.027-.03-.027-.053s-.008-.042-.018-.042c-.01 0-.017-.024-.017-.053 0-.029-.008-.053-.018-.053-.01 0-.018-.019-.018-.042 0-.023-.008-.046-.019-.049-.01-.003-.023-.04-.028-.08-.006-.042-.017-.075-.026-.075-.008 0-.015-.03-.015-.067 0-.037-.008-.075-.016-.084a.28.28 0 01-.025-.105 1.133 1.133 0 00-.028-.158 2.326 2.326 0 01.007-.65.844.844 0 00.026-.17c0-.037.008-.073.018-.079.01-.006.018-.046.018-.089s.007-.078.015-.078c.01 0 .02-.022.026-.049.015-.077.055-.18.07-.18.007 0 .013-.02.013-.044 0-.024.008-.044.017-.044.01 0 .018-.02.018-.044 0-.024.008-.044.018-.044.01 0 .022-.02.028-.044.006-.024.018-.044.027-.044.009 0 .016-.016.016-.036 0-.019.007-.035.015-.035.01 0 .021-.02.027-.044.007-.024.02-.044.029-.044.01 0 .017-.012.017-.026 0-.015.008-.027.018-.027.01 0 .018-.012.018-.027 0-.016.028-.054.062-.086.034-.032.062-.068.062-.079a.35.35 0 01.08-.098.488.488 0 00.08-.088c0-.015.046-.062.06-.062.007 0 .051-.04.1-.088a.528.528 0 01.103-.088.24.24 0 00.07-.053c.03-.03.064-.053.074-.053.01 0 .037-.02.06-.044.023-.024.058-.044.079-.044.02 0 .038-.007.038-.016 0-.009.035-.03.08-.049.043-.017.079-.038.079-.045 0-.008.016-.014.035-.014.02 0 .036-.007.036-.017 0-.01.02-.018.044-.018.025 0 .044-.008.044-.017 0-.01.02-.018.043-.018a.113.113 0 00.07-.026.13.13 0 01.081-.027c.03 0 .054-.008.054-.018 0-.01.028-.017.062-.017.035 0 .062-.008.062-.018 0-.01.034-.018.076-.018a.378.378 0 00.128-.025c.07-.032.801-.026.948.007zm22.801.003c.066.012.12.03.12.037 0 .008.036.014.08.014.043 0 .08.008.08.017 0 .01.018.018.04.018.023 0 .056.012.075.026a.137.137 0 00.066.026c.017 0 .03.009.03.019s.02.017.045.017c.024 0 .044.008.044.018 0 .01.016.018.035.018.019 0 .064.02.1.044a.268.268 0 00.09.044c.012 0 .023.008.023.017 0 .01.016.018.036.018.02 0 .035.006.035.015 0 .008.028.03.062.048.034.018.062.039.062.047 0 .007.008.013.019.013.019 0 .043.018.114.084.023.022.05.04.061.04.01 0 .019.008.019.018 0 .02.08.105.099.105.015 0 .095.092.095.11 0 .007.009.013.02.013.02 0 .069.043.069.061 0 .01.018.035.066.088.013.014.023.03.023.037 0 .007.014.025.032.041a.425.425 0 01.066.086c.018.031.04.057.047.057.008 0 .014.011.014.025 0 .032.057.133.075.134.008 0 .014.015.014.035 0 .02.008.035.017.035.01 0 .018.02.018.044 0 .024.008.044.018.044.01 0 .017.017.017.037 0 .02.012.048.027.063a.112.112 0 01.027.069c0 .023.008.043.017.043.01 0 .018.027.018.061s.008.062.018.062c.01 0 .018.026.018.057 0 .032.012.077.026.102a.32.32 0 01.026.127c0 .046.009.084.018.084.011 0 .018.14.018.387s-.007.388-.018.388c-.01 0-.017.032-.017.071 0 .04-.012.1-.027.134a.362.362 0 00-.027.114c0 .028-.008.051-.017.051-.01 0-.018.028-.018.062s-.008.061-.018.061c-.01 0-.017.015-.017.032a.133.133 0 01-.026.066.148.148 0 00-.027.074c0 .022-.009.04-.018.04-.01 0-.018.016-.018.035 0 .02-.007.035-.016.035-.008 0-.02.02-.027.044-.006.025-.019.044-.028.044-.01 0-.018.016-.018.036 0 .019-.008.035-.017.035-.01 0-.018.012-.018.026 0 .015-.008.027-.018.027-.01 0-.017.016-.017.035 0 .02-.009.035-.018.035-.01 0-.032.028-.048.062s-.036.061-.044.061-.014.009-.014.02c0 .01-.01.029-.023.041a.445.445 0 00-.101.133c0 .01-.009.018-.02.018-.02 0-.069.043-.069.062 0 .014-.047.061-.062.061a.321.321 0 00-.072.062c-.033.034-.068.062-.078.062a.018.018 0 00-.018.017c0 .01-.01.018-.02.018-.011 0-.039.02-.062.044-.022.024-.05.044-.061.044-.012 0-.034.015-.05.033a.18.18 0 01-.069.045c-.021.007-.04.02-.04.029 0 .009-.011.016-.026.016-.014 0-.026.008-.026.018 0 .01-.016.017-.036.017-.02 0-.035.008-.035.018 0 .01-.02.022-.045.028-.024.006-.044.018-.044.027 0 .009-.02.015-.044.015-.025 0-.045.008-.045.018 0 .01-.011.018-.026.018a.587.587 0 00-.126.044.518.518 0 01-.15.044c-.029 0-.052.008-.052.018 0 .01-.024.017-.053.017a.223.223 0 00-.084.016c-.104.053-.828.097-.908.055a.589.589 0 00-.151-.03.344.344 0 01-.125-.026c-.005-.008-.037-.015-.07-.015-.034 0-.061-.008-.061-.017 0-.01-.024-.018-.054-.018a.22.22 0 01-.084-.017.57.57 0 00-.184-.071c-.018 0-.033-.008-.033-.018 0-.01-.02-.018-.044-.018-.024 0-.044-.007-.044-.017 0-.01-.02-.022-.044-.028-.025-.006-.045-.018-.045-.027 0-.009-.016-.016-.035-.016-.02 0-.035-.008-.035-.017a.018.018 0 00-.019-.018c-.017 0-.037-.014-.096-.066-.014-.012-.033-.022-.044-.022-.01 0-.019-.008-.019-.017 0-.01-.012-.018-.026-.018-.015 0-.055-.028-.088-.062-.033-.034-.068-.061-.079-.061-.029 0-.373-.35-.373-.38a.239.239 0 00-.045-.057c-.024-.026-.044-.058-.044-.07 0-.012-.007-.022-.015-.022s-.03-.028-.048-.062c-.019-.034-.04-.061-.047-.061-.008 0-.014-.012-.014-.027 0-.014-.008-.026-.018-.026-.01 0-.017-.016-.017-.035 0-.02-.008-.036-.018-.036-.01 0-.018-.016-.018-.035 0-.02-.012-.04-.026-.046-.015-.006-.027-.026-.027-.044s-.008-.033-.018-.033c-.01 0-.017-.02-.017-.043 0-.024-.008-.048-.018-.054-.01-.006-.018-.03-.018-.055a.114.114 0 00-.026-.07.112.112 0 01-.027-.07c0-.024-.008-.043-.018-.043-.01 0-.017-.036-.017-.08 0-.043-.008-.079-.017-.079-.008 0-.02-.041-.026-.092-.049-.453-.051-.513-.03-.724.035-.348.04-.381.057-.381.008 0 .016-.036.016-.08 0-.043.008-.08.017-.08.01 0 .018-.023.018-.053s.012-.066.027-.08a.112.112 0 00.026-.07c0-.024.008-.043.018-.043.01 0 .018-.02.018-.044 0-.024.008-.044.017-.044.01 0 .018-.015.018-.033a.08.08 0 01.027-.055c.014-.012.026-.033.026-.046 0-.013.008-.024.018-.024.01 0 .018-.017.018-.036 0-.034.01-.05.066-.114.012-.013.022-.033.022-.043 0-.01.008-.019.018-.019.01 0 .018-.012.018-.027s.02-.048.044-.075a.191.191 0 00.044-.062.58.58 0 01.098-.11.744.744 0 00.097-.105c0-.014.047-.061.061-.061a.808.808 0 00.11-.097.616.616 0 01.114-.097c.008 0 .034-.02.059-.044.024-.024.05-.044.058-.044s.036-.02.062-.044c.027-.024.06-.044.074-.044.014 0 .029-.006.032-.013a.352.352 0 01.149-.075c.014 0 .025-.008.025-.018 0-.01.016-.017.035-.017.02 0 .036-.008.036-.018 0-.01.02-.018.044-.018.024 0 .044-.008.044-.017 0-.01.017-.018.037-.018.02 0 .049-.012.063-.026a.113.113 0 01.07-.027c.024 0 .043-.008.043-.018 0-.01.036-.017.08-.017.043 0 .08-.008.08-.018 0-.01.033-.018.075-.018a.378.378 0 00.128-.025c.07-.032.775-.025.952.01z" fill="#5136C3"/></svg>