<svg width="33" height="47" fill="none" xmlns="http://www.w3.org/2000/svg"><path fill-rule="evenodd" clip-rule="evenodd" d="M13.916.028C12.383.11 10.953.281 9.9.51c-2.477.54-3.838 1.498-4.054 2.86-.074.47.025.821.297 1.053.233.198.385.257.662.257.48 0 .833-.311.958-.846.06-.255.126-.388.256-.52.263-.265 1.134-.656 1.858-.833.627-.153 1.826-.372 1.86-.34.023.023.812 4.598.795 4.61-.007.006-.322.05-.699.1-2.75.36-5.184 1.043-7.191 2.018-1.372.666-2.256 1.268-3.096 2.107-.748.747-1.122 1.31-1.402 2.114l-.125.358-.015 11.375c-.011 8.146.001 11.518.043 11.88.16 1.362.836 2.68 1.902 3.704.69.663 1.747 1.293 2.61 1.557l.38.116-2.079 1.685c-1.627 1.32-2.1 1.73-2.182 1.893-.363.723.324 1.522 1.121 1.303.23-.063.193-.034 4.325-3.39l1.558-1.265H25.32l1.747 1.418 2.775 2.255c.566.461 1.124.881 1.24.933a.933.933 0 001.332-.788c.04-.51.032-.52-3.689-3.502-.339-.272-.618-.506-.62-.52-.001-.015.157-.08.353-.146 1.739-.585 3.123-1.76 3.896-3.305.337-.674.531-1.306.604-1.966.035-.319.048-4.428.038-11.862l-.016-11.375-.124-.358c-.28-.803-.654-1.367-1.402-2.114-.851-.85-1.69-1.42-3.115-2.115-1.975-.964-4.442-1.655-7.172-2.01a16.76 16.76 0 01-.7-.1c-.016-.011.774-4.588.796-4.61.009-.007.293.032.631.088 1.04.172 1.806.384 2.384.657.653.31.89.536.948.904.05.32.136.479.367.676.536.456 1.429.143 1.559-.547.02-.107.017-.35-.006-.54-.23-1.855-2.64-2.95-7.271-3.302-.934-.072-4.917-.103-5.96-.048zm5.327 1.924c.023.024-.132 1.056-.346 2.293-.213 1.237-.39 2.272-.39 2.3-.002.034-.705.052-2 .052h-1.998l-.396-2.301c-.218-1.265-.385-2.312-.371-2.326.09-.094 5.41-.111 5.501-.018zm3.518 10.357c.216.115.412.367.485.627.031.113.057.622.058 1.137v.933H9.697L9.7 14.1c.002-.5.023-1.008.047-1.13a.928.928 0 01.696-.724c.098-.023 2.872-.038 6.164-.033 5.59.007 5.997.014 6.154.097zm3.755 4.643c.47.073.864.274 1.165.595.47.498.448.278.448 4.566v3.759l-.172.338c-.2.394-.486.665-.902.854l-.297.135H6.241l-.35-.167a1.782 1.782 0 01-.88-.875l-.14-.288-.015-3.594c-.01-2.337.004-3.696.04-3.883.139-.728.682-1.251 1.479-1.423.383-.083 19.62-.1 20.141-.018zM8.46 32.055c1.02.252 1.838 1.035 2.108 2.019.165.6.073 1.399-.228 1.993-.203.402-.845 1.015-1.276 1.22-1.354.642-2.92.214-3.746-1.024-.307-.46-.43-.885-.43-1.474 0-.823.3-1.5.914-2.058a2.98 2.98 0 012.658-.676zm17.456 0a2.907 2.907 0 012.089 1.916c.15.46.15 1.179-.001 1.64-.573 1.748-2.748 2.524-4.308 1.538-.86-.543-1.341-1.39-1.341-2.358 0-.808.28-1.462.866-2.021a2.97 2.97 0 012.695-.715z" fill="#5136C3"/></svg>