<svg width="35" height="49" fill="none" xmlns="http://www.w3.org/2000/svg"><path fill-rule="evenodd" clip-rule="evenodd" d="M6.688.129C3.365.843.856 3.344.165 6.633.018 7.333 0 9.248 0 23.804c0 10.7.037 16.574.106 16.933.285 1.47 1.499 2.756 3.017 3.196.773.224 1.276.21 1.61-.047l.274-.212V31.023h25.038v6.185c0 6.74-.003 6.706.584 6.85.39.096 1.157-.016 1.846-.268.837-.307 1.743-1.146 2.184-2.024l.341-.678V6.663l-.243-.766c-.854-2.695-2.885-4.7-5.703-5.632l-.73-.241-10.485-.02C9.177-.01 7.239.01 6.689.13zm20.28 3.266c1.08.222 2.148.778 2.913 1.516.72.695 1.108 1.286 1.511 2.301l.269.676.031 5.457c.023 3.903-.002 5.537-.086 5.737a.838.838 0 01-.397.392c-.198.08-4.148.105-13.81.085l-13.533-.027-.238-.232-.238-.233V13.63c0-5.88.012-6.023.572-7.163.762-1.551 2.258-2.703 3.988-3.071 1.007-.214 17.977-.216 19.017-.002zm-16.651 19.76c1.142.575 1.661 1.961 1.15 3.068-.543 1.174-1.728 1.736-2.935 1.39-2.333-.668-2.39-3.883-.082-4.609.566-.178 1.338-.116 1.867.15zm16.691 0c.501.252.892.67 1.15 1.23.833 1.8-.976 3.79-2.934 3.228-2.333-.668-2.39-3.883-.082-4.609.565-.178 1.338-.116 1.866.15zM6.932 32.927l-.255.27v4.64l.255.27c.243.256.31.27 1.252.27h.996V48.46l.256.27.256.271h7.815c7.748 0 7.817-.002 8.09-.212l.275-.211v-10.2h.977c.83 0 1.018-.031 1.252-.211l.275-.212v-4.874l-.275-.212c-.274-.21-.313-.212-10.594-.212H7.188l-.256.27z" fill="#5136C3"/></svg>