<svg width="40" height="40" fill="none" xmlns="http://www.w3.org/2000/svg"><rect width="40" height="40" rx="8" fill="#0B0B0B"/><path d="M12.964 10.438a2.072 2.072 0 00-.768-.353 3.057 3.057 0 00-.699-.08 4.46 4.46 0 00-.457 0c-.018.007-.15.038-.294.069a2.277 2.277 0 00-1.072.55c-.211.196-.327.364-.461.67-.272.617-.277 1.162-.018 1.76.258.598.782 1.008 1.535 1.203.221.057.363.072.702.071.819 0 1.334-.205 1.846-.732.225-.231.34-.42.46-.754.084-.236.092-.299.092-.695 0-.376-.01-.469-.08-.683-.125-.384-.404-.748-.786-1.026zM13.847 29l-.016-13.064H9V29h4.847zm8.598-11.157c-.017 0-.03-.409-.03-.953v-.954h-4.83V29h4.83v-3.631c0-2.421.012-3.727.036-3.918.049-.392.227-.92.378-1.116.448-.585.938-.843 1.579-.829.253.005.305.018.539.13.503.24.886.72 1.087 1.362.13.411.139.738.129 4.45L26.153 29H31v-3.727c0-2.173-.014-3.906-.033-4.156-.174-2.294-.92-3.827-2.264-4.647-.337-.206-.623-.316-1.154-.445-.244-.059-.38-.069-.923-.07-.367 0-.747.017-.898.04-.352.056-1.039.215-1.24.288a5.47 5.47 0 00-1.035.544c-.24.176-.813.749-.915.913-.035.057-.077.103-.093.103z" fill="#fff"/></svg>