<svg width="100" height="100" fill="none" xmlns="http://www.w3.org/2000/svg"><rect x="99" y="99" width="98" height="98" rx="49" transform="rotate(-180 99 99)" stroke="#fff" stroke-opacity=".5" stroke-width="2"/><path d="M25.903 50.903l20.443 20.443a1.277 1.277 0 001.806 0l5.85-5.85a1.277 1.277 0 000-1.805l-8.308-8.308H68.34c.705 0 1.276-.572 1.276-1.277v-8.212c0-.705-.571-1.277-1.276-1.277H45.694l8.427-8.427a1.277 1.277 0 000-1.806l-5.85-5.85a1.277 1.277 0 00-1.805 0L25.903 49.097a1.277 1.277 0 000 1.806z" fill="#fff"/></svg>